<?xml version="1.0" standalone="no"?>
<!DOCTYPE svg PUBLIC "-//W3C//DTD SVG 20010904//EN"
 "http://www.w3.org/TR/2001/REC-SVG-20010904/DTD/svg10.dtd">
<svg version="1.0" xmlns="http://www.w3.org/2000/svg"
 width="512.000000pt" height="512.000000pt" viewBox="0 0 512.000000 512.000000"
 preserveAspectRatio="xMidYMid meet">
<metadata>
Created by potrace 1.14, written by Peter Selinger 2001-2017
</metadata>
<g transform="translate(0.000000,512.000000) scale(0.100000,-0.100000)"
fill="#000000" stroke="none">
<path d="M2415 5042 c-71 -11 -65 4 -65 -168 0 -115 -3 -156 -12 -158 -7 -2
-62 -14 -123 -26 -217 -45 -440 -138 -610 -254 -114 -77 -277 -238 -344 -339
-68 -101 -123 -219 -157 -332 -24 -80 -27 -106 -27 -245 -1 -176 16 -256 78
-388 149 -315 438 -532 966 -727 85 -31 174 -65 199 -74 l45 -17 2 -180 c2
-98 4 -340 6 -537 l3 -357 -36 6 c-147 25 -363 95 -495 161 -142 72 -297 179
-405 280 -19 18 -40 33 -47 33 -13 0 -395 -454 -441 -523 l-26 -39 59 -55
c310 -282 776 -518 1160 -587 17 -3 41 -8 55 -11 14 -3 50 -8 80 -11 30 -3 58
-9 62 -12 4 -4 10 -68 13 -142 10 -217 12 -229 26 -246 14 -17 5 -17 269 2
121 8 164 15 177 26 10 8 13 53 13 189 0 161 2 178 18 182 9 3 49 10 87 17
393 64 749 251 973 509 250 291 328 646 216 985 -51 155 -123 266 -264 407
-197 197 -447 337 -860 480 l-165 57 -1 501 c0 276 2 504 6 506 12 7 212 -42
305 -75 122 -44 245 -107 360 -185 53 -36 104 -65 113 -65 23 1 63 57 178 250
53 91 119 200 146 242 32 50 47 84 44 95 -7 21 -114 106 -234 186 -228 150
-575 280 -837 312 -87 10 -82 0 -81 141 1 80 -3 132 -10 142 -8 11 -31 16 -80
17 -38 2 -96 6 -129 10 -136 16 -191 20 -210 17z m120 -86 c82 -9 189 -19 210
-20 19 -1 20 -8 20 -134 0 -143 3 -151 55 -153 14 0 34 -2 45 -4 11 -2 40 -7
65 -10 170 -23 410 -98 585 -184 100 -49 295 -168 329 -201 14 -14 -36 -51
-51 -38 -7 6 -20 7 -29 4 -13 -5 -14 -9 -4 -21 24 -28 -18 -79 -50 -60 -6 3
-13 -1 -16 -10 -5 -11 9 -33 44 -68 42 -43 49 -55 41 -70 -10 -17 -12 -17 -23
-2 -11 15 -13 15 -25 1 -19 -23 -33 -20 -65 13 -26 28 -27 31 -12 46 22 22 20
45 -4 45 -11 0 -20 -5 -20 -10 0 -6 -11 -15 -25 -20 -14 -5 -25 -16 -25 -23 0
-22 -59 -68 -83 -65 -18 2 -22 -1 -19 -21 2 -23 -26 -61 -46 -61 -4 0 -21 13
-37 30 l-28 30 63 66 c57 59 62 67 46 76 -15 8 -29 0 -80 -51 -48 -48 -64 -59
-74 -49 -18 18 -40 -5 -24 -25 9 -11 8 -18 -7 -31 -17 -15 -22 -16 -52 -3 -19
8 -42 23 -52 35 -18 20 -17 21 41 78 55 52 69 84 39 84 -6 0 -37 -26 -69 -57
-55 -54 -58 -56 -76 -40 -39 35 -67 9 -31 -29 26 -28 14 -31 -38 -9 l-37 16
58 58 c52 52 64 81 36 81 -5 0 -33 -24 -62 -54 l-53 -54 -26 22 -26 22 29 33
c28 31 30 51 5 51 -7 0 -35 -22 -62 -50 l-49 -50 -21 20 c-18 17 -24 18 -33 7
-9 -11 -7 -18 9 -33 l21 -19 -33 -5 c-26 -4 -34 -11 -41 -35 -10 -35 -7 -1090
2 -1106 4 -6 76 -34 161 -63 190 -65 315 -115 441 -177 83 -41 231 -126 263
-151 249 -194 366 -344 430 -551 21 -70 22 -76 6 -89 -33 -28 -42 -30 -62 -12
-28 25 -48 5 -26 -27 15 -20 14 -24 -10 -55 -21 -28 -23 -35 -10 -40 8 -3 13
-13 10 -22 -2 -10 8 -29 27 -47 l30 -29 -37 -38 c-27 -28 -40 -35 -49 -27 -19
16 -36 0 -30 -26 4 -14 0 -28 -9 -35 -17 -14 -20 -36 -6 -44 5 -3 20 3 34 14
l25 20 41 -40 c39 -39 61 -45 61 -16 0 6 -16 27 -35 46 -19 19 -35 37 -35 41
0 11 69 74 82 74 18 0 24 55 6 55 -7 1 -31 16 -52 35 -38 34 -39 35 -21 55 19
21 45 27 45 10 0 -5 9 -10 20 -10 24 0 26 17 5 40 -14 15 -14 18 0 30 9 7 18
10 21 7 3 -3 7 -51 9 -106 7 -261 -95 -501 -304 -709 -73 -73 -254 -212 -276
-211 -5 0 -19 6 -30 14 -18 15 -17 18 40 75 l58 59 30 -25 c43 -36 67 -14 26
25 -12 11 -19 28 -17 42 2 20 -1 24 -21 23 -14 -1 -37 11 -54 27 -29 28 -47
30 -47 5 0 -7 11 -23 25 -36 14 -13 25 -27 25 -30 0 -4 -25 -32 -56 -63 l-56
-56 -35 39 c-19 21 -48 43 -63 49 -27 9 -33 4 -129 -91 -98 -99 -101 -101
-121 -83 -10 9 -18 27 -17 38 4 41 -30 28 -89 -33 l-58 -60 -31 30 c-55 53
-79 28 -25 -26 l29 -31 -37 -36 -38 -37 -59 60 c-33 33 -65 60 -72 60 -20 0
-15 -31 9 -57 l22 -23 -49 -50 c-27 -28 -52 -50 -56 -50 -3 0 -24 18 -45 40
-22 22 -44 40 -51 40 -27 0 -18 -28 24 -71 l44 -45 -56 -53 c-46 -42 -54 -55
-45 -66 7 -8 16 -13 20 -10 3 2 24 -13 45 -35 l38 -39 -35 -35 c-20 -20 -39
-36 -43 -36 -4 0 -27 12 -52 27 l-44 28 5 122 c5 121 5 123 -17 128 -25 7 -73
13 -101 14 -18 1 -17 4 9 31 l28 29 29 -24 c46 -39 68 -12 26 32 l-21 23 23
26 c21 21 22 27 10 34 -10 6 -21 3 -37 -12 -24 -22 -35 -19 -71 24 -27 32 -40
35 -49 12 -3 -10 8 -29 31 -53 l36 -37 -38 -37 -38 -37 -38 39 c-35 36 -36 39
-21 55 14 13 15 19 5 32 -11 13 -15 12 -32 -3 -19 -17 -21 -17 -51 17 -42 47
-80 48 -126 2 l-34 -33 -37 36 c-21 20 -37 44 -36 53 0 10 -6 17 -15 17 -9 0
-40 22 -68 48 l-52 49 -61 -60 -61 -59 -36 14 c-20 8 -45 21 -55 28 -19 14
-19 15 -2 34 18 20 19 19 54 -15 38 -36 47 -40 58 -23 3 6 -9 27 -28 47 -20
21 -38 45 -41 55 -4 9 -12 17 -19 17 -16 0 -78 61 -78 77 0 7 -6 13 -13 13 -7
0 -26 14 -42 30 -16 17 -35 30 -42 30 -20 0 -16 -38 6 -49 32 -18 32 -38 -3
-74 l-32 -34 -30 21 c-69 49 -77 56 -71 63 4 3 16 -3 27 -15 23 -24 35 -27 45
-11 4 6 -3 21 -16 35 l-22 24 21 23 c15 15 18 27 12 37 -8 12 -13 11 -38 -7
l-29 -22 -37 38 c-23 23 -36 46 -34 57 2 13 -3 19 -17 19 -11 1 -26 4 -33 9
-20 12 -38 -9 -23 -27 9 -11 8 -17 -4 -27 -14 -11 -20 -9 -42 13 l-26 26 29
38 c16 21 36 47 46 58 9 11 77 92 151 181 l134 161 59 -49 c199 -166 452 -295
719 -366 140 -38 258 -51 271 -31 12 20 3 1177 -10 1197 -3 6 -37 20 -74 32
-305 101 -580 221 -728 320 -101 68 -123 86 -212 173 -180 177 -273 387 -273
615 1 54 3 107 5 118 2 12 7 37 10 55 10 63 48 174 86 249 152 301 444 531
820 646 75 23 256 62 305 66 45 4 50 20 51 177 1 80 2 147 3 148 0 1 13 0 29
-2 15 -2 50 -6 77 -9z m1354 -788 c-20 -27 -23 -28 -37 -14 -14 14 -14 18 8
41 18 19 26 22 37 14 10 -9 9 -17 -8 -41z m-49 -70 c0 -5 -7 -20 -16 -33 l-16
-24 -25 25 -25 25 23 25 c21 22 24 23 41 7 10 -9 18 -20 18 -25z m-900 -58
c19 -19 19 -20 1 -20 -36 0 -53 11 -40 26 15 18 15 18 39 -6z m699 -71 c17
-17 31 -33 31 -36 0 -2 -14 -18 -31 -35 l-30 -31 -34 33 -33 32 30 34 c17 19
32 34 34 34 1 0 16 -14 33 -31z m115 -24 c-4 -8 -11 -15 -16 -15 -6 0 -5 6 2
15 7 8 14 15 16 15 2 0 1 -7 -2 -15z m-378 -56 l29 -31 -40 18 c-22 10 -42 19
-44 21 -5 3 9 23 18 23 4 0 20 -14 37 -31z m174 -19 l30 -29 -25 -26 c-26 -29
-43 -28 -83 3 l-24 18 27 32 c15 18 31 32 36 32 4 0 22 -13 39 -30z m170 22
c0 -4 -12 -25 -26 -46 -24 -35 -28 -37 -42 -22 -15 14 -14 18 13 46 27 28 55
40 55 22z m-91 -101 c18 -18 18 -20 2 -44 l-16 -25 -28 20 -28 20 22 24 c27
29 24 29 48 5z m-2437 -2710 c49 -51 32 -64 -26 -19 -33 24 -41 36 -34 46 15
17 17 16 60 -27z m300 -151 l32 -31 -26 -25 -25 -26 -42 28 -42 27 28 29 c14
15 30 28 35 28 4 0 22 -14 40 -30z m1902 -124 c-16 -14 -31 -25 -34 -26 -8 0
-23 13 -54 48 l-30 32 30 29 29 30 44 -44 44 -43 -29 -26z m-1605 -7 c17 -17
31 -33 31 -35 0 -7 -48 -54 -55 -54 -3 0 -26 10 -51 21 l-45 22 37 38 c21 22
41 39 45 39 4 0 21 -14 38 -31z m1552 -71 c7 -14 -2 -21 -62 -43 -38 -15 -71
-26 -72 -24 -1 2 -15 19 -31 36 l-29 32 49 51 48 50 44 -43 c24 -23 48 -49 53
-59z m127 60 c9 -9 5 -16 -18 -30 -17 -10 -38 -18 -47 -18 -13 0 -10 7 12 30
32 34 36 35 53 18z m-396 -40 c19 -22 19 -22 -22 -62 l-40 -41 -22 23 -22 22
39 40 c21 22 41 40 43 40 3 0 13 -10 24 -22z m-1192 -41 c14 -12 32 -30 39
-39 11 -15 6 -15 -49 3 -59 20 -60 22 -44 40 21 24 23 23 54 -4z m205 -13 l36
-36 -21 -23 c-12 -13 -27 -22 -34 -20 -6 2 -30 9 -54 15 l-44 11 39 44 c21 24
39 44 40 44 1 1 19 -15 38 -35z m1067 -23 c10 -9 18 -19 18 -22 0 -6 -81 -27
-272 -69 -21 -4 -38 -5 -38 -1 0 4 17 24 38 44 l38 37 30 -25 c31 -27 44 -31
44 -15 0 6 9 10 20 10 11 0 34 16 51 35 32 34 37 35 71 6z m-972 -73 c0 -9
-13 -10 -34 -2 -8 3 -12 12 -9 19 4 11 9 12 24 2 10 -6 19 -15 19 -19z m612 8
c16 -22 16 -24 -8 -45 -24 -21 -24 -22 -24 -201 l0 -180 -27 -1 c-16 0 -53 -3
-84 -5 -48 -3 -59 0 -78 20 l-22 23 42 37 41 38 37 -36 c20 -20 42 -36 49 -36
23 0 12 32 -21 64 -18 18 -36 40 -40 49 -3 9 -11 17 -18 17 -19 0 -80 70 -72
83 4 7 18 24 32 40 l25 27 41 -40 c40 -39 75 -52 75 -28 0 7 -19 31 -41 54
l-41 42 48 51 c27 28 54 50 59 50 6 0 18 -10 27 -23z m-302 -397 c0 -3 -7 -12
-15 -19 -13 -11 -15 -7 -15 26 1 36 2 38 15 20 8 -11 15 -23 15 -27z m45 -39
c-3 -5 -10 -10 -16 -10 -5 0 -9 5 -9 10 0 6 7 10 16 10 8 0 12 -4 9 -10z"/>
<path d="M2190 4443 c-285 -34 -531 -181 -687 -410 -80 -117 -110 -182 -144
-317 -27 -103 -35 -288 -15 -305 22 -19 28 1 31 112 10 419 315 780 730 867
70 15 95 17 188 19 60 1 68 3 65 19 -3 14 -15 17 -73 17 -39 1 -81 -1 -95 -2z"/>
<path d="M2270 4016 c-109 -29 -180 -60 -253 -110 -234 -160 -292 -446 -130
-636 76 -89 198 -158 397 -224 111 -37 141 -39 148 -8 2 9 3 85 2 167 -2 83
-3 291 -4 463 -1 188 -5 324 -12 342 -12 37 -29 37 -148 6z m80 -278 c1 -117
2 -306 3 -420 2 -147 0 -208 -8 -208 -19 0 -173 59 -233 89 -72 37 -165 108
-159 124 2 7 14 10 27 9 18 -3 22 0 18 15 -3 11 7 31 29 53 18 19 33 41 33 48
0 22 -29 13 -58 -18 -16 -16 -32 -30 -36 -30 -4 0 -25 17 -46 38 l-38 37 38
33 c31 26 41 30 52 19 53 -48 59 -52 68 -37 7 11 0 24 -22 47 l-31 32 45 49
c40 43 48 47 63 36 17 -13 35 -10 35 4 0 4 -18 27 -40 50 l-41 44 31 31 30 31
29 -28 c28 -27 51 -28 51 -2 0 7 -11 23 -24 35 l-25 23 34 37 c24 25 37 33 45
25 7 -7 3 -17 -15 -34 -14 -13 -25 -29 -25 -37 0 -20 34 -16 55 7 9 10 27 18
39 17 15 -1 21 4 21 18 1 29 26 75 42 75 10 0 13 -42 13 -212z m-270 105 c0
-10 -52 -63 -62 -63 -17 0 -7 25 20 47 28 23 42 28 42 16z m-78 -197 l-47 -45
-27 26 c-26 25 -27 27 -11 57 9 17 25 44 36 59 l19 29 39 -41 39 -40 -48 -45z
m-94 -54 l21 -19 -31 -29 -31 -29 6 25 c4 14 7 35 7 48 0 27 1 27 28 4z m26
-234 c-3 -5 -12 -1 -20 9 -20 27 -17 39 6 18 11 -10 17 -22 14 -27z"/>
<path d="M2782 2224 c-15 -10 -20 -25 -20 -66 -3 -312 -1 -930 3 -953 9 -46
22 -55 68 -49 221 29 417 146 492 294 65 128 52 284 -35 419 -86 132 -233 248
-442 347 -40 19 -49 20 -66 8z m127 -125 c169 -96 280 -199 338 -316 34 -69
38 -84 38 -157 0 -66 -4 -90 -24 -128 -36 -70 -78 -116 -144 -159 -75 -49
-154 -80 -244 -96 l-33 -6 0 447 c0 245 3 446 7 446 3 0 31 -14 62 -31z"/>
<path d="M3867 1453 c-12 -12 -8 -21 29 -58 l36 -38 -45 -45 c-43 -43 -47 -45
-64 -29 -12 10 -23 13 -32 7 -12 -7 -12 -12 2 -33 15 -24 14 -25 -33 -72 -47
-46 -50 -48 -68 -32 -21 19 -52 23 -52 6 0 -13 98 -117 123 -131 36 -19 41 7
8 44 l-30 34 46 47 c25 26 49 47 53 47 4 0 15 -9 25 -20 18 -20 55 -28 55 -11
0 5 -11 23 -25 39 l-25 30 45 43 c25 24 53 44 63 44 9 0 17 7 18 15 0 8 4 23
8 32 12 26 -1 40 -26 27 -17 -9 -26 -6 -57 25 -39 38 -43 40 -54 29z"/>
</g>
</svg>
